<svg width="16" height="17" viewBox="0 0 16 17" fill="none" xmlns="http://www.w3.org/2000/svg">
<path d="M6.27536 2.93481C6.47766 3.1371 6.52738 3.44634 6.39869 3.70185C6.06314 4.36807 5.87388 5.12101 5.87388 5.92007C5.87388 8.6477 8.08506 10.8589 10.8127 10.8589C11.6118 10.8589 12.3647 10.6696 13.0309 10.3341C13.2864 10.2054 13.5957 10.2551 13.798 10.4574C14.0003 10.6597 14.05 10.9689 13.9213 11.2244C12.8913 13.2694 10.7718 14.6746 8.323 14.6746C4.86304 14.6746 2.05818 11.8697 2.05818 8.40976C2.05818 5.96092 3.46334 3.84145 5.50832 2.81148C5.76383 2.68279 6.07307 2.73251 6.27536 2.93481ZM4.59196 5.17355C3.83924 6.04063 3.38418 7.1723 3.38418 8.40976C3.38418 11.1374 5.59536 13.3486 8.323 13.3486C9.56047 13.3486 10.6921 12.8935 11.5592 12.1408C11.3143 12.1699 11.0652 12.1849 10.8127 12.1849C7.35273 12.1849 4.54788 9.38003 4.54788 5.92007C4.54788 5.66756 4.56285 5.41843 4.59196 5.17355Z" fill="white"/>
</svg>
