<svg width="17" height="17" viewBox="0 0 17 17" fill="none" xmlns="http://www.w3.org/2000/svg">
<g opacity="0.5">
<path d="M8.18866 2.07764C8.55483 2.07764 8.85166 2.37447 8.85166 2.74063V3.40363C8.85166 3.7698 8.55483 4.06663 8.18866 4.06663C7.8225 4.06663 7.52567 3.7698 7.52567 3.40363V2.74063C7.52567 2.37447 7.8225 2.07764 8.18866 2.07764ZM12.8768 4.01951C13.1357 4.27842 13.1357 4.69821 12.8768 4.95713L12.408 5.42594C12.1491 5.68486 11.7293 5.68486 11.4704 5.42594C11.2115 5.16702 11.2115 4.74724 11.4704 4.48832L11.9392 4.01951C12.1981 3.76059 12.6179 3.76059 12.8768 4.01951ZM3.50056 4.01951C3.75947 3.76059 4.17926 3.76059 4.43818 4.01951L4.90699 4.48832C5.1659 4.74724 5.1659 5.16702 4.90699 5.42594C4.64807 5.68486 4.22828 5.68486 3.96937 5.42594L3.50056 4.95713C3.24164 4.69821 3.24164 4.27843 3.50056 4.01951ZM8.18866 6.05562C6.72401 6.05562 5.53667 7.24296 5.53667 8.70762C5.53667 10.1723 6.72401 11.3596 8.18866 11.3596C9.65332 11.3596 10.8407 10.1723 10.8407 8.70762C10.8407 7.24296 9.65332 6.05562 8.18866 6.05562ZM4.21068 8.70762C4.21068 6.51063 5.99168 4.72963 8.18866 4.72963C10.3856 4.72963 12.1667 6.51063 12.1667 8.70762C12.1667 10.9046 10.3856 12.6856 8.18866 12.6856C5.99168 12.6856 4.21068 10.9046 4.21068 8.70762ZM1.55869 8.70762C1.55869 8.34145 1.85552 8.04462 2.22168 8.04462H2.88468C3.25084 8.04462 3.54768 8.34145 3.54768 8.70762C3.54768 9.07378 3.25084 9.37061 2.88468 9.37061H2.22168C1.85552 9.37061 1.55869 9.07378 1.55869 8.70762ZM12.8296 8.70762C12.8296 8.34145 13.1265 8.04462 13.4926 8.04462H14.1556C14.5218 8.04462 14.8186 8.34145 14.8186 8.70762C14.8186 9.07378 14.5218 9.37061 14.1556 9.37061H13.4926C13.1265 9.37061 12.8296 9.07378 12.8296 8.70762ZM3.96937 11.9893C4.22828 11.7304 4.64807 11.7304 4.90699 11.9893C5.1659 12.2482 5.1659 12.668 4.90699 12.9269L4.43818 13.3957C4.17926 13.6546 3.75947 13.6546 3.50056 13.3957C3.24164 13.1368 3.24164 12.717 3.50056 12.4581L3.96937 11.9893ZM11.4704 12.9269C11.2115 12.668 11.2115 12.2482 11.4704 11.9893C11.7293 11.7304 12.1491 11.7304 12.408 11.9893L12.8768 12.4581C13.1357 12.717 13.1357 13.1368 12.8768 13.3957C12.6179 13.6546 12.1981 13.6546 11.9392 13.3957L11.4704 12.9269ZM8.18866 13.3486C8.55483 13.3486 8.85166 13.6454 8.85166 14.0116V14.6746C8.85166 15.0408 8.55483 15.3376 8.18866 15.3376C7.8225 15.3376 7.52567 15.0408 7.52567 14.6746V14.0116C7.52567 13.6454 7.8225 13.3486 8.18866 13.3486Z" fill="white"/>
</g>
</svg>
